<?xml version="1.0" encoding="UTF-8"?>
<svg version="1.1" xmlns="http://www.w3.org/2000/svg" width="708" height="708">
<path d="M0 0 C8.46423245 6.52955075 14.70861204 13.38858352 17 24 C18.50206916 37.82267472 18.14600162 51.81741505 18.14044189 65.6980896 C18.14302936 68.29514663 18.14604357 70.89220327 18.1494453 73.48925936 C18.15697319 79.85117094 18.15921567 86.21307412 18.15977435 92.5749897 C18.1606931 100.20280908 18.16737532 107.83062082 18.17412117 115.45843688 C18.19012536 133.87986846 18.19607659 152.30129916 18.20086992 170.72273645 C18.20320992 179.43998538 18.20681284 188.15723366 18.2105653 196.87448208 C18.22339138 226.7293464 18.23411489 256.58421036 18.2375679 286.43907738 C18.23778953 288.31037264 18.23801132 290.18166791 18.23823325 292.05296317 C18.23845389 293.92866332 18.23867437 295.80436346 18.2388947 297.68006361 C18.23933724 301.44279631 18.23978436 305.20552901 18.24023438 308.96826172 C18.24034377 309.90118916 18.24045316 310.8341166 18.24056586 311.79531457 C18.24420032 342.07763533 18.26013987 372.35993221 18.28342474 402.64224382 C18.30801476 434.68054538 18.32174019 466.71883329 18.32293582 498.75714457 C18.32310727 502.27274426 18.3233227 505.78834395 18.32357025 509.30394363 C18.32362602 510.1695439 18.32368179 511.03514417 18.32373925 511.92697474 C18.32488989 525.85675104 18.33591218 539.78650278 18.35045731 553.71627078 C18.36481511 567.70813133 18.36806318 581.69996038 18.36001733 595.69182627 C18.35555899 604.00376319 18.35943005 612.31559846 18.37525584 620.62752203 C18.38614439 626.8320601 18.38137221 633.03649311 18.37048396 639.2410291 C18.36851904 641.75215364 18.3716419 644.26328832 18.38032833 646.77439861 C18.39138173 650.18527794 18.38395946 653.59564109 18.3719368 657.00650597 C18.37953199 657.98319121 18.38712718 658.95987645 18.39495254 659.96615821 C18.29828596 672.65444761 13.97373721 682.45366036 5.40625 691.73046875 C2.19938137 694.75512894 -0.94941677 696.3866321 -5 698 C-6.5778125 698.8353125 -6.5778125 698.8353125 -8.1875 699.6875 C-12.33320836 701.6221639 -16.17154449 702.12483593 -20.71548587 702.12649983 C-21.64205954 702.12925958 -22.56863322 702.13201932 -23.52328488 702.13486269 C-24.53464412 702.13280737 -25.54600335 702.13075205 -26.58800983 702.12863445 C-27.67194144 702.13038749 -28.75587305 702.13214053 -29.87265107 702.13394669 C-33.52988482 702.13862418 -37.18707912 702.13613668 -40.84431458 702.13371277 C-43.48280188 702.13557986 -46.1212862 702.13784013 -48.75977248 702.14057809 C-54.50939211 702.1457358 -60.25900332 702.14714865 -66.00862503 702.14612198 C-74.55855842 702.14459899 -83.10848247 702.14875449 -91.65841405 702.1539966 C-107.81608677 702.16367614 -123.97375633 702.16648107 -140.13143162 702.16705366 C-152.6074091 702.1675129 -165.08338533 702.16956963 -177.55936241 702.17275429 C-181.14829864 702.17365181 -184.73723487 702.17454162 -188.3261711 702.17542917 C-189.21834706 702.17565021 -190.11052303 702.17587126 -191.02973463 702.17609901 C-216.13084751 702.18225468 -241.23195995 702.18619942 -266.33307362 702.18575573 C-267.27977235 702.18574015 -268.22647109 702.18572457 -269.20185767 702.18570852 C-274.00031138 702.18562541 -278.79876508 702.18552637 -283.59721879 702.18542381 C-284.5502389 702.18540387 -285.50325901 702.18538392 -286.48515851 702.18536337 C-288.41239798 702.18532294 -290.33963746 702.18528114 -292.26687693 702.18523798 C-322.25580366 702.18462514 -352.24471908 702.19213281 -382.23364258 702.20581055 C-415.91228042 702.22116474 -449.59091084 702.22977717 -483.26955241 702.22884732 C-486.8594317 702.22877269 -490.449311 702.22872399 -494.03919029 702.22869301 C-495.36510692 702.22867553 -495.36510692 702.22867553 -496.71780975 702.22865769 C-510.95449398 702.22862689 -525.19116841 702.23501793 -539.42784972 702.24362527 C-553.73131135 702.25209425 -568.03475861 702.25309763 -582.33822135 702.24651595 C-590.83935193 702.24281528 -599.34043892 702.24466807 -607.8415649 702.25445829 C-613.51821384 702.26044425 -619.19483112 702.25917828 -624.87147859 702.25198779 C-628.10710065 702.24809456 -631.34262112 702.24846351 -634.57824049 702.25544515 C-638.06372749 702.26246973 -641.54898763 702.25723934 -645.03446674 702.24888897 C-646.03880248 702.25385715 -647.04313821 702.25882533 -648.07790837 702.26394406 C-660.59142402 702.20029952 -669.80356608 698.60934541 -678.95703125 690.0703125 C-687.01395241 681.90555492 -690 672.42381079 -690 661 C-688.97562367 649.26768983 -684.49013634 641.08878444 -676 633 C-668.14112649 626.93659946 -659.83616958 624.80713393 -650 625 C-649.67 624.34 -649.34 623.68 -649 623 C-648.11957031 623.05800781 -647.23914063 623.11601563 -646.33203125 623.17578125 C-640.32075049 623.171249 -634.51242425 621.52878631 -628.6875 620.1875 C-627.51509766 619.92646484 -626.34269531 619.66542969 -625.13476562 619.39648438 C-618.33016748 617.85775615 -611.64740218 616.1153176 -605 614 C-603.75734375 613.61199219 -602.5146875 613.22398437 -601.234375 612.82421875 C-580.31486677 605.99958098 -561.4466758 595.89656633 -543 584 C-541.9275 583.319375 -540.855 582.63875 -539.75 581.9375 C-536.92086267 579.94424415 -534.37301258 577.78327516 -531.80859375 575.46484375 C-530 574 -530 574 -527.72265625 572.71484375 C-524.07365124 570.41654648 -521.11800715 567.58886211 -518 564.625 C-517.34717041 564.00939209 -516.69434082 563.39378418 -516.02172852 562.75952148 C-501.45593781 549.72342764 -501.45593781 549.72342764 -489.5 534.5 C-488.15608893 532.26014821 -486.79032366 530.56395424 -485.0625 528.625 C-482.12826951 525.28504875 -480.12761356 521.90062486 -478 518 C-476.66666667 516 -475.33333333 514 -474 512 C-471.15243732 507.15144733 -468.55034484 502.22851468 -466.0625 497.1875 C-465.3621696 495.77334317 -464.66164913 494.35928047 -463.9609375 492.9453125 C-463.45771973 491.92872559 -463.45771973 491.92872559 -462.94433594 490.89160156 C-461.37186104 487.74177335 -459.74341409 484.62014161 -458.10546875 481.50390625 C-456.45344957 477.76205362 -455.24919024 473.89178425 -454 470 C-453.7620874 469.27498291 -453.5241748 468.54996582 -453.27905273 467.80297852 C-449.99056115 457.69735211 -447.3080256 447.5402913 -445.1875 437.125 C-444.8773999 435.63033203 -444.8773999 435.63033203 -444.56103516 434.10546875 C-442.0196481 421.09288307 -441.79025173 407.96508966 -441.8125 394.75 C-441.81343658 394.02433838 -441.81437317 393.29867676 -441.81533813 392.55102539 C-441.84592491 381.58559181 -442.10813983 370.82198522 -444 360 C-444.16129395 359.06849121 -444.32258789 358.13698242 -444.48876953 357.17724609 C-450.34171049 324.27210615 -460.79045962 293.38791147 -477.3125 264.25 C-477.65007324 263.65316406 -477.98764648 263.05632812 -478.33544922 262.44140625 C-479.73418797 260.01324673 -481.0086626 257.9913374 -483 256 C-483 255.01 -483 254.02 -483 253 C-483.34036221 251.517596 -483.6964617 250.03877369 -484.0625 248.5625 C-486.33147904 237.4769167 -484.00208428 228.36325148 -478 219 C-477.46375 218.071875 -476.9275 217.14375 -476.375 216.1875 C-471.12528209 209.14182596 -464.53948292 203.4946804 -456 201 C-452.4375 200.75 -452.4375 200.75 -450 201 C-449.67 200.34 -449.34 199.68 -449 199 C-448.67 199.33 -448.34 199.66 -448 200 C-443.34911285 200.30523962 -443.34911285 200.30523962 -439 199 C-439 199.66 -439 200.32 -439 201 C-437.80375 201.103125 -436.6075 201.20625 -435.375 201.3125 C-430.02119365 201.99816292 -426.09396065 204.28950587 -421.625 207.1875 C-415.69566293 210.9648769 -409.31028912 213.92769305 -403.00268555 217.01171875 C-401.65556712 217.67649205 -400.31329944 218.35117723 -398.97583008 219.03515625 C-379.82522528 228.81773633 -357.99271612 234.72052273 -337 239 C-336.03223633 239.19899902 -335.06447266 239.39799805 -334.06738281 239.60302734 C-319.33181801 242.50404712 -304.91117118 243.37123858 -289.9375 243.375 C-289.12750549 243.37690338 -288.31751099 243.37880676 -287.48297119 243.38076782 C-272.90906176 243.37688322 -258.15502571 242.620608 -243.9375 239.1875 C-243.20112305 239.01500732 -242.46474609 238.84251465 -241.70605469 238.66479492 C-239.46554233 238.12857328 -237.23222699 237.56965435 -235 237 C-233.96673584 236.73944824 -233.96673584 236.73944824 -232.91259766 236.47363281 C-210.20654315 230.61993947 -182.89838015 220.7274755 -164.8203125 205.38671875 C-162.65709332 203.55607205 -160.86279626 202.20497914 -158.375 200.9375 C-155.29857773 199.17140573 -153.43148786 197.51253746 -151 195 C-150.28199219 194.5978125 -149.56398438 194.195625 -148.82421875 193.78125 C-145.11224234 191.44008646 -142.1098868 188.57904167 -138.9375 185.5625 C-138.28136719 184.94358887 -137.62523437 184.32467773 -136.94921875 183.68701172 C-121.44996804 169.60848552 -121.44996804 169.60848552 -109 153 C-108.07502828 151.74070116 -107.13591479 150.49173895 -106.1875 149.25 C-103.47912956 145.68565076 -100.96380668 142.03091751 -98.5078125 138.2890625 C-97.4962548 136.75338164 -96.46994106 135.22732702 -95.4296875 133.7109375 C-92.63003663 129.61697568 -90.11334889 125.55020141 -87.98803711 121.06616211 C-87.0847156 119.17715546 -86.14009192 117.30804262 -85.19140625 115.44140625 C-78.21587324 101.50481897 -71.96995543 87.08905825 -68 72 C-67.75797852 71.09588379 -67.51595703 70.19176758 -67.26660156 69.26025391 C-64.23378832 57.77942506 -61.74433726 46.42719895 -60.375 34.625 C-58.58322644 19.60050715 -54.99486769 10.29402022 -42.95703125 0.3046875 C-30.29190284 -8.41727722 -12.79614393 -8.29425008 0 0 Z M-60 214 C-61.04166613 215.31712192 -62.05636615 216.65553983 -63.0625 218 C-67.05807784 223.06491874 -71.43558419 227.63207238 -76 232.1875 C-76.99592163 233.18426758 -76.99592163 233.18426758 -78.01196289 234.20117188 C-81.96087957 238.10789824 -86.01955903 241.83660755 -90.23828125 245.45043945 C-92.01047989 246.97138279 -92.01047989 246.97138279 -93.59375 248.62182617 C-95 250 -95 250 -97.1875 251.25 C-99.74760279 252.84295285 -101.76358487 254.49522862 -104 256.5 C-106.86411133 259.06319156 -109.64949027 261.09835934 -113 263 C-113.78375 263.639375 -114.5675 264.27875 -115.375 264.9375 C-117.93530393 266.94916737 -120.48962441 268.44299807 -123.328125 270.0078125 C-125.17086478 271.04169151 -125.17086478 271.04169151 -127.25 272.875 C-130.71577481 275.55309872 -134.42587939 277.494227 -138.28515625 279.55078125 C-140.48676335 280.72602763 -142.65538114 281.93358458 -144.8125 283.1875 C-163.33545939 293.72016318 -183.51036933 302.19666088 -204 308 C-205.10166504 308.31300049 -205.10166504 308.31300049 -206.22558594 308.63232422 C-224.22183218 313.6839692 -242.35138473 317.48950347 -261 319 C-262.07822021 319.08902588 -263.15644043 319.17805176 -264.26733398 319.26977539 C-274.0083655 320.002111 -283.67486299 320.11974303 -293.4375 320.0625 C-294.95898287 320.05746574 -296.48046739 320.0529063 -298.00195312 320.04882812 C-301.66800397 320.03799622 -305.33399074 320.02084235 -309 320 C-305.06929372 324.69491888 -300.99078604 329.16888891 -296.6784668 333.5144043 C-296.07757233 334.12347626 -295.47667786 334.73254822 -294.85757446 335.3600769 C-292.89111614 337.35111302 -290.92074344 339.33819978 -288.94921875 341.32421875 C-287.93174529 342.34967772 -287.93174529 342.34967772 -286.89371681 343.39585304 C-283.3074419 347.00873009 -279.71758523 350.61800876 -276.12524414 354.22485352 C-273.16505185 357.19841084 -270.21230792 360.17907479 -267.26586914 363.16625977 C-263.69097215 366.79057001 -260.10386667 370.4023609 -256.50773048 374.00559425 C-255.14600673 375.37400769 -253.78852225 376.74665408 -252.43552208 378.12369347 C-250.53858414 380.05241787 -248.62629099 381.96459258 -246.7097168 383.8737793 C-245.88874763 384.71935646 -245.88874763 384.71935646 -245.05119324 385.58201599 C-240.84834017 389.71937294 -236.46246541 391.87235154 -231 394 C-229.99453125 394.4434375 -228.9890625 394.886875 -227.953125 395.34375 C-199.21106052 407.63804348 -166.80446728 410.3536598 -137 400 C-136.12214844 399.71382812 -135.24429688 399.42765625 -134.33984375 399.1328125 C-125.00265194 395.95475284 -116.5655726 391.56234109 -108.8515625 385.39453125 C-107 384 -107 384 -104.63671875 382.64453125 C-101.51153615 380.69534329 -98.87247818 378.37392493 -96.1875 375.875 C-95.66486572 375.39144043 -95.14223145 374.90788086 -94.60375977 374.40966797 C-88.61501923 368.79930904 -83.16315768 363.10429395 -79 356 C-78.27523854 354.87131474 -77.54433335 353.74656 -76.80859375 352.625 C-76.42123047 352.03203125 -76.03386719 351.4390625 -75.63476562 350.828125 C-74.83541401 349.60758158 -74.03331864 348.38883077 -73.22851562 347.171875 C-71.07585915 343.86562466 -69.32665425 340.71225226 -68 337 C-67.62101563 336.05125 -67.24203125 335.1025 -66.8515625 334.125 C-66.44679688 333.09375 -66.04203125 332.0625 -65.625 331 C-65.22539063 329.989375 -64.82578125 328.97875 -64.4140625 327.9375 C-64.19833588 327.33479782 -63.98260925 326.73209564 -63.76034546 326.11112976 C-63.20944862 324.58154253 -62.61733689 323.06659624 -62.00064087 321.56233215 C-58.01240826 310.68743874 -58.49211239 299.94845904 -58.609375 288.51171875 C-58.61684921 286.35554025 -58.62253656 284.19935488 -58.62652588 282.04316711 C-58.64168926 276.4091975 -58.68088969 270.77565019 -58.7253418 265.1418457 C-58.76649648 259.37652293 -58.78457977 253.61113092 -58.8046875 247.84570312 C-58.84739396 236.56361806 -58.9155309 225.28184435 -59 214 C-59.33 214 -59.66 214 -60 214 Z M-364 378 C-364.01981934 379.0516333 -364.03963867 380.1032666 -364.06005859 381.18676758 C-364.83192677 420.74664756 -364.83192677 420.74664756 -367 435 C-367.13809082 435.92876953 -367.27618164 436.85753906 -367.41845703 437.81445312 C-368.48985604 444.89954777 -369.69107201 451.95503621 -371 459 C-371.13599609 459.73863281 -371.27199219 460.47726562 -371.41210938 461.23828125 C-373.37292679 471.4902708 -376.61807291 481.35265969 -379.875 491.25 C-380.18525116 492.20111664 -380.18525116 492.20111664 -380.50177002 493.17144775 C-383.42829655 502.09384115 -386.92111383 510.54743481 -391 519 C-391.80662573 520.72565784 -392.61146222 522.45215376 -393.4140625 524.1796875 C-394.15041745 525.74508544 -394.88738227 527.31019668 -395.625 528.875 C-395.99367188 529.66390625 -396.36234375 530.4528125 -396.7421875 531.265625 C-398.96651841 535.98057995 -401.35376224 540.50792973 -404 545 C-404.46921875 545.80824219 -404.9384375 546.61648438 -405.421875 547.44921875 C-413.2775496 560.68834094 -421.7791961 573.77663329 -432.3359375 585.02734375 C-433.96202462 586.95498224 -434.8815068 588.75852166 -436 591 C-437.48046875 592.640625 -437.48046875 592.640625 -439.1875 594.25 C-441.61246396 596.60073037 -443.88502296 598.98158179 -446.0625 601.5625 C-451.16717429 607.49275942 -456.82738275 612.90606157 -462.38769531 618.40380859 C-464.60019788 620.59419954 -466.80060491 622.79645511 -469 625 C-464.25941862 625.9380628 -459.66948896 626.13695126 -454.85498047 626.11352539 C-454.06073669 626.11367142 -453.26649292 626.11381744 -452.44818115 626.1139679 C-449.83782158 626.11327451 -447.22753452 626.10550666 -444.6171875 626.09765625 C-442.79688557 626.09578934 -440.97658313 626.09436672 -439.15628052 626.09336853 C-434.3738668 626.08955914 -429.59148369 626.07974602 -424.80908203 626.06866455 C-419.94173595 626.05843818 -415.07438498 626.05386252 -410.20703125 626.04882812 C-402.34963071 626.04004102 -394.49224511 626.02772359 -386.63485718 626.0111084 C-383.42322438 626.00435039 -380.21164261 626 -377 626 C-366.66740689 624.1367455 -356.30512891 620.8705561 -347 616 C-346.00613281 615.50886719 -345.01226562 615.01773438 -343.98828125 614.51171875 C-335.89773456 610.41885395 -328.59107187 606.112786 -322.03515625 599.796875 C-319.83253212 597.85213968 -317.51836555 596.5038581 -315 595 C-310.84543791 591.42198938 -307.7649926 587.72352903 -305 583 C-303.18013535 580.91722036 -301.31977841 578.88274555 -299.42578125 576.8671875 C-297.69655275 574.9941599 -297.69655275 574.9941599 -298 572 C-297.34 572 -296.68 572 -296 572 C-279.57338472 541.33374485 -274.32204029 507.48043699 -283.9453125 473.6796875 C-284.89509773 470.75554558 -285.91513627 467.87653261 -287 465 C-287.3196875 464.13890625 -287.639375 463.2778125 -287.96875 462.390625 C-288.59403824 460.76689264 -289.24419441 459.152419 -289.92401123 457.55075073 C-290.57366824 456.01066674 -291.19587036 454.45801167 -291.76397705 452.88601685 C-295.76495648 443.2652834 -303.8239535 436.53429814 -311.109375 429.3671875 C-312.60301099 427.88034853 -314.09560997 426.39246716 -315.58721924 424.90359497 C-318.69995107 421.80149483 -321.82047916 418.70755501 -324.94775391 415.62011719 C-328.96553967 411.65350689 -332.97008163 407.67386044 -336.96978378 403.68902397 C-340.78323961 399.89030829 -344.6019177 396.09686399 -348.421875 392.3046875 C-349.15351616 391.57795712 -349.88515732 390.85122673 -350.63896942 390.10247421 C-352.69496216 388.06266636 -354.75450344 386.0265209 -356.81542969 383.99169922 C-357.43047867 383.38091019 -358.04552765 382.77012115 -358.67921448 382.14082336 C-360.97693409 379.31807625 -360.97693409 379.31807625 -364 378 Z M-65 448.125 C-65.99644531 448.76308594 -66.99289062 449.40117187 -68.01953125 450.05859375 C-70.59800934 451.73815287 -73.14582444 453.45312802 -75.6875 455.1875 C-79.65741952 457.83876435 -83.67936755 459.98277419 -88 462 C-89.13824219 462.54785156 -90.27648437 463.09570312 -91.44921875 463.66015625 C-98.83460696 467.19432081 -106.19791416 470.4775979 -114 473 C-114.61037109 473.19835449 -115.22074219 473.39670898 -115.84960938 473.60107422 C-126.44488504 477.0015502 -137.0074301 479.3077771 -148 481 C-143.51104824 486.37649508 -138.76522352 491.37766696 -133.80737305 496.32202148 C-133.00831039 497.12283646 -132.20924774 497.92365143 -131.38597107 498.74873352 C-128.76371769 501.37536226 -126.13785473 503.99834732 -123.51171875 506.62109375 C-121.68408324 508.44940313 -119.85659619 510.27786092 -118.0292511 512.10646057 C-114.21049556 515.92668688 -110.38999406 519.7451545 -106.56811523 523.56225586 C-102.1456398 527.97926699 -97.72680981 532.39990059 -93.30981034 536.82238716 C-89.05552918 541.08174178 -84.79845613 545.33829323 -80.54017067 549.5936451 C-78.72883401 551.40431266 -76.91824544 553.2157289 -75.10840416 555.02789116 C-72.58989093 557.54892709 -70.0682238 560.06676397 -67.5456543 562.58374023 C-66.41504578 563.7173851 -66.41504578 563.7173851 -65.26159668 564.87393188 C-64.23760017 565.89369865 -64.23760017 565.89369865 -63.19291687 566.93406677 C-62.59693538 567.52967124 -62.00095388 568.12527571 -61.38691235 568.73892879 C-60.18910741 570.1121239 -60.18910741 570.1121239 -59 570 C-59 528.75 -59 487.5 -59 445 C-61.1161954 445 -63.30922033 447.04008305 -65 448.125 Z M-204 538 C-204.20753906 539.20011719 -204.41507812 540.40023437 -204.62890625 541.63671875 C-208.16924978 561.14420938 -214.32518529 579.00167661 -223.375 596.625 C-225.21690781 599.82619567 -225.21690781 599.82619567 -225 603 C-225.66 603 -226.32 603 -227 603 C-227.54527344 604.03447266 -227.54527344 604.03447266 -228.1015625 605.08984375 C-231.08447104 610.66558818 -234.21258052 616.01458537 -237.80078125 621.22265625 C-239.04863467 622.98931253 -239.04863467 622.98931253 -240 625 C-228.85426216 625.17329998 -217.7084307 625.33960904 -206.5625 625.5 C-205.73740559 625.51187725 -204.91231117 625.5237545 -204.0622139 625.53599167 C-175.37277871 625.9466425 -146.69271816 626.13634233 -118 626 C-117.69229356 623.03535057 -117.69229356 623.03535057 -119.32468319 621.30338001 C-120.26296381 620.36729924 -120.26296381 620.36729924 -121.22019958 619.41230774 C-121.93395752 618.69298065 -122.64771545 617.97365356 -123.38310242 617.23252869 C-124.17634415 616.44850174 -124.96958588 615.66447479 -125.78686523 614.85668945 C-126.61431244 614.02719788 -127.44175964 613.1977063 -128.29428101 612.34307861 C-130.56774961 610.06711303 -132.84778744 607.79798699 -135.13104129 605.53184533 C-137.51527664 603.16262197 -139.89142908 600.78531891 -142.26856995 598.40898132 C-146.26104243 594.42020317 -150.25911339 590.4371094 -154.26098633 586.45776367 C-159.40449544 581.3431486 -164.53868826 576.21928638 -169.66999722 571.09243488 C-174.07392919 566.69247703 -178.48211736 562.29679053 -182.8909924 557.90178657 C-184.31195393 556.48493078 -185.7323234 555.06748346 -187.1526165 553.64995766 C-189.79370673 551.0157015 -192.43815688 548.38486964 -195.08374023 545.75512695 C-195.87495773 544.96502731 -196.66617523 544.17492767 -197.48136902 543.36088562 C-198.19794678 542.65001801 -198.91452454 541.93915039 -199.65281677 541.20674133 C-200.27871421 540.58381856 -200.90461164 539.96089579 -201.54947567 539.31909657 C-202.79653456 537.88786748 -202.79653456 537.88786748 -204 538 Z " fill="#FFFFFF" transform="translate(690,6)"/>
<path d="" fill="#FFFFFF" transform="translate(0,0)"/>
<path d="" fill="#FFFFFF" transform="translate(0,0)"/>
<path d="" fill="#FFFFFF" transform="translate(0,0)"/>
<path d="" fill="#FFFFFF" transform="translate(0,0)"/>
<path d="" fill="#FFFFFF" transform="translate(0,0)"/>
<path d="" fill="#FFFFFF" transform="translate(0,0)"/>
<path d="" fill="#FFFFFF" transform="translate(0,0)"/>
<path d="" fill="#FFFFFF" transform="translate(0,0)"/>
<path d="" fill="#FFFFFF" transform="translate(0,0)"/>
<path d="" fill="#FFFFFF" transform="translate(0,0)"/>
<path d="" fill="#FFFFFF" transform="translate(0,0)"/>
<path d="" fill="#FFFFFF" transform="translate(0,0)"/>
<path d="" fill="#FFFFFF" transform="translate(0,0)"/>
<path d="" fill="#FFFFFF" transform="translate(0,0)"/>
<path d="" fill="#FFFFFF" transform="translate(0,0)"/>
<path d="" fill="#FFFFFF" transform="translate(0,0)"/>
<path d="" fill="#FFFFFF" transform="translate(0,0)"/>
<path d="" fill="#FFFFFF" transform="translate(0,0)"/>
<path d="" fill="#FFFFFF" transform="translate(0,0)"/>
<path d="" fill="#FFFFFF" transform="translate(0,0)"/>
<path d="" fill="#FFFFFF" transform="translate(0,0)"/>
<path d="" fill="#FFFFFF" transform="translate(0,0)"/>
<path d="" fill="#FFFFFF" transform="translate(0,0)"/>
<path d="" fill="#FFFFFF" transform="translate(0,0)"/>
<path d="" fill="#FFFFFF" transform="translate(0,0)"/>
<path d="" fill="#FFFFFF" transform="translate(0,0)"/>
<path d="" fill="#FFFFFF" transform="translate(0,0)"/>
<path d="" fill="#FFFFFF" transform="translate(0,0)"/>
<path d="" fill="#FFFFFF" transform="translate(0,0)"/>
<path d="" fill="#FFFFFF" transform="translate(0,0)"/>
<path d="" fill="#FFFFFF" transform="translate(0,0)"/>
<path d="" fill="#FFFFFF" transform="translate(0,0)"/>
<path d="" fill="#FFFFFF" transform="translate(0,0)"/>
<path d="" fill="#FFFFFF" transform="translate(0,0)"/>
<path d="" fill="#FFFFFF" transform="translate(0,0)"/>
<path d="" fill="#FFFFFF" transform="translate(0,0)"/>
</svg>
